<?xml version="1.0" standalone="no"?>
<!DOCTYPE svg PUBLIC "-//W3C//DTD SVG 20010904//EN"
 "http://www.w3.org/TR/2001/REC-SVG-20010904/DTD/svg10.dtd">
<svg version="1.0" xmlns="http://www.w3.org/2000/svg"
 width="96.000000pt" height="96.000000pt" viewBox="0 0 96.000000 96.000000"
 preserveAspectRatio="xMidYMid meet">

<g transform="translate(0.000000,96.000000) scale(0.100000,-0.100000)"
fill="#000000" stroke="none">
<path d="M438 838 c-25 -20 -358 -604 -358 -628 0 -11 11 -32 25 -45 l24 -25
351 0 351 0 24 25 c14 13 25 34 25 45 0 24 -333 608 -358 628 -9 6 -28 12 -42
12 -14 0 -33 -6 -42 -12z m210 -325 c89 -153 164 -286 167 -295 7 -17 -13 -18
-335 -18 -322 0 -342 1 -335 18 14 36 327 572 335 572 4 0 80 -125 168 -277z"/>
</g>
</svg>
